<?xml version="1.0" encoding="UTF-8"?>
<svg id="LOGO2" xmlns="http://www.w3.org/2000/svg" viewBox="0 0 404.18 404.59">
  <defs>
    <style>
      .cls-1 {
        fill: #1d1d1b;
      }

      .cls-1, .cls-2 {
        stroke-width: 0px;
      }

      .cls-2 {
        fill: #fff;
      }
    </style>
  </defs>
  <rect class="cls-1" width="404.18" height="404.18"/>
  <g>
    <path class="cls-2" d="m137.99,319.81c-15.52,0-29.44-1.81-41.74-5.42-12.31-3.61-22.82-8.77-31.51-15.45-8.7-6.67-15.52-14.68-20.47-24-4.95-9.32-7.83-19.55-8.63-30.68h59.4c1.87,10.57,6.48,18.64,13.85,24.21,7.35,5.58,17.19,8.35,29.5,8.35,11.24,0,19.93-2.22,26.09-6.67,6.15-4.46,9.23-10.72,9.23-18.79,0-5.01-1.47-9.05-4.41-12.1-2.95-3.06-6.96-5.56-12.04-7.52-5.09-1.94-10.91-3.55-17.46-4.8-6.56-1.25-13.58-2.57-21.08-3.97-9.63-1.94-19-4.18-28.09-6.68-9.1-2.51-17.26-6.25-24.49-11.26-7.23-5.01-13.05-11.55-17.46-19.62-4.41-8.07-6.62-18.64-6.62-31.74,0-11.41,2.34-21.43,7.03-30.05,4.68-8.62,11.03-15.86,19.07-21.7,8.03-5.85,17.52-10.23,28.5-13.16,10.97-2.92,22.74-4.38,35.32-4.38,29.71,0,52.18,6.05,67.44,18.16,15.25,12.1,24.34,27.9,27.29,47.38h-58.6c-4.01-15.86-16.05-23.79-36.12-23.79-9.63,0-17.33,1.95-23.08,5.84-5.76,3.9-8.63,9.47-8.63,16.69,0,4.18,1.34,7.59,4.01,10.23,2.67,2.65,6.42,4.8,11.24,6.47,4.82,1.67,10.44,3.06,16.86,4.17,6.42,1.12,13.25,2.37,20.47,3.76,9.64,1.67,19.27,3.84,28.9,6.47,9.63,2.65,18.32,6.62,26.09,11.89,7.76,5.3,14.12,12.31,19.07,21.08,4.94,8.77,7.43,20.12,7.43,34.03,0,11.96-2.41,22.53-7.23,31.72-4.81,9.18-11.51,16.84-20.06,22.96-8.57,6.13-18.74,10.72-30.51,13.78-11.78,3.06-24.62,4.59-38.53,4.59Z"/>
    <path class="cls-2" d="m294.68,132.58h1.21c6.95-15.57,15.25-26.71,24.88-33.39,9.64-6.68,21.14-10.02,34.52-10.02,6.43,0,10.84.55,13.26,1.66v57.2h-1.62c-4.54-.83-8.96-1.25-13.24-1.25-17.14-.28-30.85,5.08-41.15,16.07-10.31,11-15.45,27.35-15.45,49.05v103.11h-63.03V92.93h60.61v39.65Z"/>
  </g>
</svg>